<?xml version="1.0" standalone="no"?>
<!DOCTYPE svg PUBLIC "-//W3C//DTD SVG 1.1//EN" "http://www.w3.org/Graphics/SVG/1.1/DTD/svg11.dtd" >
<!--
2013-9-30: Created.
-->
<svg>
<metadata>
Created by iconfont
</metadata>
<defs>

<font id="iconfont" horiz-adv-x="1024" >
  <font-face
    font-family="iconfont"
    font-weight="500"
    font-stretch="normal"
    units-per-em="1024"
    ascent="896"
    descent="-128"
  />
    <missing-glyph />
    
    <glyph glyph-name="dianzan" unicode="&#58913;" d="M1041.441824 477.826231C1017.545784 516.542013 976.978907 538.344853 934.856203 540.009049 932.672662 540.348076 930.455865 540.573268 928.182457 540.573268L681.491077 540.843006C698.221007 588.917888 707.361417 640.576052 707.361417 694.399528 707.361417 729.306836 703.416492 763.273781 696.177769 795.992268L695.526642 795.90813C682.3613 853.222089 631.382524 896 570.359886 896 499.341382 896 441.78117 838.13172 441.78117 766.753128 441.78117 762.804836 442.028573 758.923359 442.364598 755.057966 438.548914 617.857593 331.614976 506.639731 196.661604 496.930472L196.661604 496.095279 49.99039 495.751304C48.21671 495.970309 46.431955 496.117551 44.609042 496.117551 20.192356 496.117551 0.39757 476.225137 0.39757 451.686581L0-81.678089C0-106.211696 19.782477-126.104111 44.199165-126.104111 46.59566-126.104111 48.930613-125.861596 51.223717-125.494111L214.393457-125.562164C216.553627-125.888817 218.732259-126.104111 220.969974-126.104111 223.210149-126.104111 225.381396-125.888817 227.525566-125.56835L840.966989-125.82695 840.966989-126.092974C864.997185-126.137518 889.32402-119.639107 911.109115-105.722954 931.788904-92.498463 947.345814-74.345723 957.569383-53.811138 960.374515-49.715604 962.586401-45.106583 963.928028-40.029854L1059.429687 383.720522C1060.754092 388.745283 1061.113516 393.793557 1060.720858 398.70572 1062.705021 425.538271 1056.644245 453.202301 1041.441824 477.826231L1041.441824 477.826231ZM265.44116-42.490887 177.048986-42.469853 177.38132 401.419166C177.38132 401.419166 231.384331 401.761903 265.862117 412.504327L265.44116-42.490887 265.44116-42.490887Z"  horiz-adv-x="1071" />

    
    <glyph glyph-name="fenxiang" unicode="&#58940;" d="M458.559369 375.256872c0-109.856014-89.068572-198.922539-198.922539-198.922539-109.85499 0-198.923562 89.066525-198.923562 198.922539 0 109.853967 89.068572 198.925608 198.923562 198.925608C369.490797 574.181457 458.559369 485.109816 458.559369 375.256872zM259.638877 375.256872 803.275411 664.31836 259.638877 375.256872ZM259.638877 375.256872 806.480406 103.682663 259.638877 375.256872ZM955.67231 103.775784c0-82.46313-66.825988-149.286048-149.191904-149.286048-82.465177 0-149.192927 66.822918-149.192927 149.286048 0 82.371032 66.727751 149.192927 149.192927 149.192927C888.847345 252.968711 955.67231 186.146816 955.67231 103.775784zM952.466292 664.31836c0-82.370009-66.825988-149.191904-149.190881-149.191904-82.367963 0-149.192927 66.821895-149.192927 149.191904 0 82.364893 66.824965 149.191904 149.192927 149.191904C885.64235 813.511287 952.466292 746.683253 952.466292 664.31836zM685.626373 643.474592l33.245197-61.19094-284.104646-154.354795-33.245197 61.19094 284.104646 154.354795ZM710.456815 195.962528l-30.487979-62.612476-273.31234 133.084354 30.487979 62.612476 273.31234-133.084354Z"  horiz-adv-x="1024" />

    
    <glyph glyph-name="pinglun" unicode="&#58906;" d="M869.084 708.867l-0.823-472.611-171.141 0.298c-11.94 0.021-23.395-2.275-34.331-6.904-10.936-4.63-20.734-11.253-29.397-19.849l-121.603-121.18-122.176 121.605c-3.971 4.656-8.45 8.644-13.402 11.963-4.969 3.318-10.103 5.969-15.4 7.987-5.315 1.999-10.938 3.673-16.906 4.986-5.948 1.331-11.936 2.011-17.925 2.038l-171.123 0.299 0.823 472.611 713.403-1.242zM889.122 798.393l-753.148 1.311c-19.23 0.034-35.667-6.568-49.296-19.813-13.627-13.247-20.459-29.481-20.492-48.711l-0.895-514.366c-0.034-19.232 6.741-35.506 20.322-48.791s29.996-19.952 49.227-19.986l191.024-0.331 172.845-174.41c3.288-3.317 7.609-4.989 12.91-4.999 1.338-0.002 2.66 0.321 3.981 0.97l7.966 3.985 173.435 173.809 191.023-0.333c19.232-0.033 35.669 6.577 49.299 19.813 13.626 13.239 20.457 29.489 20.49 48.721l0.896 514.365c0.033 19.23-6.742 35.489-20.321 48.783-13.581 13.293-29.997 19.952-49.228 19.985l-0.037 0zM245.818 474.669c0.029 16.255 5.86 30.183 17.496 41.769 11.616 11.594 25.411 17.378 41.331 17.35 6.622-0.012 12.935-1.026 18.9-3.027 5.948-2.009 11.425-4.84 16.412-8.495 4.968-3.663 9.284-7.976 12.912-12.949 3.609-4.972 6.421-10.458 8.438-16.451 1.997-5.982 2.981-12.298 2.952-18.919-0.043-24.531-11.343-42.087-33.94-52.657-7.966-3.976-16.6-5.96-25.899-5.944-15.902 0.028-29.678 5.859-41.253 17.485-11.596 11.634-17.38 25.583-17.351 41.838v0zM452.76 473.793c0.020 11.272 2.697 21.388 8.032 30.335 5.298 8.946 12.457 16.070 21.421 21.355 8.964 5.295 18.918 7.928 29.882 7.908 10.945-0.018 20.892-2.686 29.837-8.011 8.964-5.325 16.080-12.466 21.365-21.43 5.285-8.965 7.928-19.081 7.908-30.361-0.028-15.921-5.859-29.668-17.493-41.262-11.635-11.586-25.575-17.369-41.822-17.34-16.264 0.028-30.183 5.859-41.776 17.485-11.597 11.633-17.379 25.411-17.352 41.321v0zM661.715 473.946c0.028 16.254 5.859 30.183 17.494 41.769 11.633 11.594 25.411 17.377 41.331 17.349 11.252-0.019 21.38-2.696 30.326-8.022 8.947-5.316 16.061-12.465 21.347-21.43 5.303-8.964 7.927-19.081 7.907-30.352-0.028-15.921-5.86-29.669-17.476-41.263-11.634-11.585-25.574-17.369-41.839-17.34-16.264 0.019-30.184 5.851-41.779 17.486-11.593 11.635-17.359 25.574-17.331 41.83l0.018-0.028zM661.715 473.946z"  horiz-adv-x="1024" />

    
    <glyph glyph-name="back6" unicode="&#59040;" d="M670.608974 0.9337460000000419c-7.776956 0-15.656241 2.865194-21.795943 8.697911L298.645348 340.25462200000004c-6.344359 6.037374-9.925852 14.325972-9.925852 23.023883 0 8.697911 3.581493 17.088838 9.925852 23.023883l350.167683 330.725292c12.688718 12.074748 32.847407 11.460777 44.819826-1.330269 12.074748-12.688718 11.460777-32.847407-1.330269-44.819826L366.693714 363.38083300000005l325.711202-307.599081c12.688718-12.074748 13.302688-32.131108 1.330269-44.819826C687.493155 4.208254000000011 678.9999 0.9337460000000419 670.608974 0.9337460000000419z"  horiz-adv-x="1024" />

    
    <glyph glyph-name="yes" unicode="&#58885;" d="M414.245926 144.971852l437.57037 453.12c7.300741 7.49037 7.111111 19.531852-0.474074 26.832593-7.49037 7.300741-19.531852 7.111111-26.832593-0.474074L398.506667 183.27703699999995 199.111111 382.672593c-7.395556 7.395556-19.437037 7.395556-26.832593 0l0 0c-7.395556-7.395556-7.395556-19.437037 0-26.832593l212.574815-212.574815c6.731852-6.731852 17.161481-7.300741 24.557037-1.896296C411.211852 142.31703700000003 412.823704 143.45481500000005 414.245926 144.971852z"  horiz-adv-x="1024" />

    
    <glyph glyph-name="buoumaotubiao16" unicode="&#58895;" d="M93.556364 326.865455c-40.843636 40.797091-70.306909 88.948364-84.154182 141.614545-13.614545 49.896727-12.846545 103.563636 5.003636 157.998545C30.301091 673.861818 58.274909 717.451636 94.021818 752.477091c35.328 34.280727 79.406545 61.765818 127.534545 76.869818 55.691636 17.92 111.127273 17.92 162.280727 4.538182 46.638545-12.334545 89.972364-35.514182 128.279273-67.281455 38.539636 31.767273 81.384727 54.946909 127.767273 67.281455 51.898182 13.381818 107.310545 12.846545 163.048727-4.538182 48.104727-15.639273 91.997091-42.589091 128.256-77.358545 35.025455-34.769455 62.254545-78.103273 78.103273-125.486545l0.279273 0c17.873455-54.434909 18.641455-108.125091 5.050182-157.998545-13.893818-52.666182-43.357091-100.817455-83.432727-141.614545l-2.513455-1.768727L539.345455-63.744c-15.104-15.639273-39.540364-15.639273-55.179636 0.744727L93.556364 326.865455zM310.365091 796.834909 310.365091 796.834909c20.619636 0 41.355636-2.699636 61.579636-7.982545 39.354182-10.402909 76.520727-29.975273 110.475636-58.112l29.602909-24.552727 29.672727 24.459636c34.420364 28.346182 71.447273 47.941818 109.800727 58.135273 20.270545 5.236364 41.029818 7.866182 61.696 7.866182 25.297455 0 50.850909-3.956364 75.333818-11.613091 40.471273-13.149091 78.661818-36.212364 109.847273-66.117818 30.254545-30.021818 53.341091-67.118545 66.769455-107.240727l2.722909-7.959273c12.125091-41.565091 12.753455-82.920727 1.722182-123.392-11.008-41.704727-34.746182-82.408727-68.770909-117.922909l-2.234182-1.559273-2.839273-2.839273L512.116364-25.157818 126.440727 359.796364c-35.770182 35.746909-60.672 77.428364-72.145455 120.925091-11.659636 42.728727-10.193455 86.900364 4.212364 130.932364 13.381818 39.819636 36.933818 77.032727 67.956364 107.403636 31.511273 30.580364 69.213091 53.341091 109.358545 65.954909C260.212364 792.855273 285.300364 796.834909 310.365091 796.834909M310.341818 843.380364c-29.090909 0-58.903273-4.445091-88.762182-14.056727-48.128-15.104-92.229818-42.589091-127.534545-76.869818-35.746909-35.025455-63.720727-78.615273-79.639273-125.998545-17.850182-54.434909-18.618182-108.125091-5.003636-157.998545 13.870545-52.666182 43.310545-100.817455 84.154182-141.614545l390.609455-389.864727c7.912727-8.285091 18.059636-12.381091 28.136727-12.381091 9.844364 0 19.572364 3.909818 27.042909 11.636364l389.329455 388.840727 2.513455 1.768727c40.075636 40.797091 69.538909 88.948364 83.432727 141.614545 13.591273 49.896727 12.823273 103.563636-5.050182 157.998545l-0.279273 0c-15.872 47.383273-43.101091 90.717091-78.103273 125.486545-36.258909 34.792727-80.128 61.719273-128.256 77.358545-30.161455 9.402182-60.253091 13.870545-89.716364 13.870545-24.971636 0-49.524364-3.211636-73.309091-9.332364-46.382545-12.334545-89.227636-35.514182-127.767273-67.281455C473.809455 798.347636 430.475636 821.527273 383.837091 833.861818 360.145455 840.075636 335.499636 843.380364 310.341818 843.380364L310.341818 843.380364z"  horiz-adv-x="1024" />

    
    <glyph glyph-name="right" unicode="&#58948;" d="M702.59919546 401.97065964L356.94751661 743.47474448c-9.97226971 9.87446145-25.92014502 9.67715744-35.74485901-0.19730402-9.82471399-9.97311347-9.72606199-25.96989248 0.19646026-35.74570194l327.43312564-323.53258227L321.39996161 60.467417729999966c-9.923366-9.77580945-10.02201718-25.77174554-0.19646026-35.74570194 4.93680927-4.98655673 11.45373404-7.50428696 17.97065963-7.50428696 6.41827358 0 12.83654718 2.41907822 17.77335562 7.30698377l345.65083594 341.50408484c4.73950525 4.73950525 7.50428696 11.20752631 7.50428696 17.97150256C710.10348242 390.76313333 707.33870071 397.23115439 702.59919546 401.97065964z"  horiz-adv-x="1024" />

    
    <glyph glyph-name="loading" unicode="&#59315;" d="M923 325.20000000000005h-117.4c-32.4 0-58.8 26.4-58.8 58.8s26.4 58.8 58.8 58.8h117.4c32.4 0 58.8-26.4 58.8-58.8s-26.4-58.8-58.8-58.8z m-161.8 225c-23-23-60.2-23-83 0-23 22.8-23 60.2 0 83l83 83c22.8 23 60 23 83 0 22.8-23 23-60.2 0-83l-83-83zM512-85.79999999999995c-32.4 0-58.8 26.4-58.8 58.8v117.4c0 32.4 26.2 58.8 58.8 58.8 32.4 0 58.8-26.4 58.8-58.8v-117.4c0-32.4-26.4-58.8-58.8-58.8z m0 704.6c-32.4 0-58.8 26.4-58.8 58.8V795c0 32.4 26.2 58.8 58.8 58.8 32.4 0 58.8-26.4 58.8-58.8v-117.4c0-32.4-26.4-58.8-58.8-58.8zM262.8 51.799999999999955c-22.8-23-60.2-23-83 0-23 22.8-23 60.2 0 83l83 83c23 23 60.2 23 83 0 22.8-23 23-60 0-83l-83-83z m0 498.4l-83 83c-23 23-23 60.2 0 83 23 22.8 60.2 23 83 0l83-83c23-23 23-60.2 0-83-22.8-23-60-23-83 0z m14.4-166.2c0-32.4-26.2-58.8-58.8-58.8H101c-32.4 0-58.8 26.4-58.8 58.8s26.2 58.8 58.8 58.8h117.4c32.4 0 58.8-26.4 58.8-58.8z m484-166.2l83-83c23-22.8 23-60 0-83-23-22.8-60.2-23-83 0l-83 83c-23 23-23 60.2 0 83 22.8 23 60 23 83 0z"  horiz-adv-x="1024" />

    
    <glyph glyph-name="pinglun1" unicode="&#58976;" d="M789.942857-23.613404H178.432451c-51.2903 0-92.828219 41.537919-92.828218 92.828219V686.14321c0 51.2903 41.537919 92.828219 92.828218 92.828219h339.527337v-36.11993h-339.527337c-31.424339 0-56.708289-25.64515-56.708289-56.708289v-616.928395c0-31.424339 25.64515-56.708289 56.708289-56.708289h611.510406c31.424339 0 56.708289 25.64515 56.708289 56.708289v206.244797h36.11993v-206.244797c0-51.2903-41.537919-92.828219-92.828219-92.828219M933.338977 637.381305L787.414462 782.944621c-3.250794 3.250794-7.946384 5.417989-12.641975 5.417989s-9.391182-1.805996-12.641976-5.417989L342.778131 363.59224c-2.167196-2.167196-3.611993-5.05679-4.695591-7.946385L281.37425 155.541446c-1.805996-6.140388 0-13.003175 4.695591-17.698765 3.611993-3.611993 7.946384-5.417989 13.003175-5.41799 1.444797 0 3.250794 0.361199 4.695591 0.722399l202.271605 54.541093c2.889594 0.722399 5.779189 2.528395 7.946384 4.695591L933.338977 611.736155c3.250794 3.250794 5.417989 7.946384 5.417989 12.641976s-2.167196 9.752381-5.417989 13.003174z m-562.026102-297.267019l118.834568-118.834568-165.429277-44.788713 46.594709 163.623281z m144.840917-93.911817l-119.918166 119.918166L774.772487 744.657496l119.918166-119.918166-378.536861-378.536861z"  horiz-adv-x="1024" />

    
    <glyph glyph-name="fenxiang1" unicode="&#59333;" d="M911.6 244.4l0-209.2c0-36-30.4-66.2-66.2-66.2l-699.6-1.2c-35.8 0-65 29.2-65 65.2l1.2 699.6c0 35.8 30.4 66.2 66.2 66.2l387 0L535.2 875.8 148.2 875.8c-81.8 0-143-82.8-143-156.8l0-686c0-77.6 63-140.8 140.8-140.8l686 0c82 0 156.6 68.2 156.6 143L988.6 244.4 911.6 244.4 911.6 244.4zM730.2 835.2l288.6-289.2L730.2 257l0 165.2c0 0-286.4 31.8-453.6-206.6 0 0 52.6 454.4 453.6 454.4L730.2 835.2 730.2 835.2z"  horiz-adv-x="1024" />

    
    <glyph glyph-name="en-US" unicode="&#58909;" d="M503.40926 559.6036409999999h-92.816462a2732.422636 2732.422636 0 0 0-1.519589-74.56114h94.336051v74.56114zM286.57412 485.042501h92.249149c0.871231 20.139612 1.458805 45.000079 1.701939 74.56114h-93.951088v-74.56114zM761.962169 316.570795l22.550692 0.141829V896.141828H5.470518v-779.042342l592.011397-1.235932v108.113652h164.622082l-0.141828 92.593589zM210.878354 668.7506129999999h99.664741V713.6493869999999h29.662366v-44.878512h110.322121V713.6493869999999h29.662367v-44.878512h100.414404v-26.62319H480.189949v-34.606094h-29.662367V642.127424h-110.322121v-34.606094h-29.662366V642.127424h-99.664741v26.623189z m351.855639-327.137c-85.583221 17.140958-141.301464 52.557499-167.17499 106.330669-19.288643-45.52687-75.391848-82.847962-168.329878-112.02406-5.83522 8.367867-13.068461 17.627226-21.679461 27.757815 89.270756 23.219311 144.219074 54.765968 164.905738 94.741274h-161.481599v26.62319h47.93795v100.414404h123.816067c0 11.792006-0.060784 24.212109-0.182351 37.28057h30.432291c0-13.068461-0.081045-25.488564-0.18235-37.28057h122.296478v-100.414404h49.457538v-26.62319h-164.885477c29.520538-49.720934 85.259042-78.370241 167.17499-85.968183-8.651524-11.16391-16.006332-21.436328-22.104946-30.837515zM820.598021 208.47740399999998v94.761535h-37.381875v-94.761535h-167.377602v-198.235378h35.639414v23.482707h131.717926V-128h37.381876v161.724733h133.460388v-23.482707h35.639414v198.235378h-169.079541z m-37.381875-142.577918h-131.717927v110.423427h131.717927v-110.423427z m170.842263 0h-133.460388v110.423427h133.460388v-110.423427z"  horiz-adv-x="1024" />

    
    <glyph glyph-name="zh-CN" unicode="&#58910;" d="M33.4848 670.5152h47.24736V769.49504h122.0608c0 11.63264-0.06144 23.87968-0.18432 36.74112h30.0032c0-12.88192-0.06144-25.12896-0.18432-36.74112h120.54528v-98.97984h48.7424v-26.25536h-162.54976c29.10208-49.00864 84.04992-77.25056 164.80256-84.74624a450.43712 450.43712 0 0 1-21.74976-30.39232c-84.3776 16.896-139.30496 51.8144-164.80256 104.81664-19.02592-44.87168-74.32192-81.67424-165.94944-110.42816a367.16544 367.16544 0 0 1-21.38112 27.36128c88.00256 22.89664 142.17216 54.00576 162.57024 93.3888H33.4848V670.5152z m1.86368 181.10464h98.24256V895.85664h29.24544v-44.25728h108.7488V895.85664h29.24544v-44.25728h99.00032V825.344H300.8512v-34.11968h-29.24544V825.36448h-108.7488v-34.11968H133.59104V825.36448H35.34848V851.61984z m167.26016-107.60192H109.9776v-73.50272h90.95168c0.83968 19.84512 1.41312 44.35968 1.67936 73.50272z m28.11904-73.50272h92.99968V744.01792h-91.50464a2644.54144 2644.54144 0 0 0-1.49504-73.50272zM647.61856 319.05791999999997h115.11808v-95.232h-115.11808zM501.76 319.05791999999997h113.62304v-95.232H501.76zM448.75776 576.1843200000001v-97.56672h-91.50464v0.57344H279.9616V-128H983.04V575.0784l-534.28224 1.10592z m344.73984-400.36352h-30.74048v20.25472h-115.11808v-139.48928h-32.256v139.48928H501.76v-20.25472h-30.74048v170.98752h144.36352v81.75616h32.256v-81.75616h145.87904v-170.98752z"  horiz-adv-x="1024" />

    
    <glyph glyph-name="icon-test" unicode="&#58994;" d="M896 469.333333H516.266667c10.666667 55.466667 38.4 181.333333 38.4 224C554.666667 768 507.733333 768 480 768c-34.133333 0-61.866667-25.6-74.666667-70.4-19.2-113.066667-78.933333-200.533333-96-228.266667H298.666667v-42.666666h34.133333l40.533333 64c25.6 44.8 59.733333 115.2 74.666667 198.4 4.266667 14.933333 12.8 36.266667 32 36.266666C509.866667 725.333333 512 725.333333 512 693.333333c0-34.133333-21.333333-142.933333-36.266667-209.066666l-10.666666-57.6h401.066666l-21.333333-100.266667H590.933333v-42.666667H832l-19.2-106.666666H569.6v-42.666667h232.533333L774.4 21.333333H405.333333v-42.666666h388.266667c6.4 0 12.8 4.266667 17.066667 10.666666l106.666666 450.133334c4.266667 14.933333-6.4 29.866667-21.333333 29.866666zM277.333333-42.666667H106.666667V512h170.666666c36.266667 0 64-27.733333 64-64v-426.666667c0-36.266667-27.733333-64-64-64z m-128 42.666667h128c12.8 0 21.333333 8.533333 21.333334 21.333333V448c0 12.8-8.533333 21.333333-21.333334 21.333333H149.333333v-469.333333z"  horiz-adv-x="1024" />

    
    <glyph glyph-name="Blog" unicode="&#58882;" d="M0.686391 308.16355h214.897494a247.215057 247.215057 0 0 1 153.865919 43.242615 140.938894 140.938894 0 0 1 56.455636 118.345199 136.706151 136.706151 0 0 1-22.87969 82.366886 128.469463 128.469463 0 0 1-74.358995 45.301788v3.775149a106.50496 106.50496 0 0 1 62.919149 42.270228 131.558221 131.558221 0 0 1 23.794879 79.335327 113.368867 113.368867 0 0 1-54.568062 104.045393A327.980365 327.980365 0 0 1 193.676581 860.250483H1.086785v-552.086933zM149.861973 747.33921h41.927033q70.183451 0 70.24065-46.445771a46.159776 46.159776 0 0 0-17.560162-39.295869 81.222902 81.222902 0 0 0-49.648929-13.213021H149.861973v98.954661z m49.477331-208.090785a86.313633 86.313633 0 0 0 54.167668-14.700202 50.678515 50.678515 0 0 0 18.704147-42.327427 57.199226 57.199226 0 0 0-69.840256-58.915204H149.861973V539.248425h49.477331zM660.822663 895.771203H513.019862v-587.607653h147.688403V895.771203z m484.706246-255.85214a183.037525 183.037525 0 0 1-74.358995 76.818561 225.708148 225.708148 0 0 1-111.424093 26.826437 211.179544 211.179544 0 0 1-158.441857-57.942816 260.027684 260.027684 0 0 1 1.143984-325.006005 204.887629 204.887629 0 0 1 155.009904-60.001988 209.005974 209.005974 0 0 1 158.041463 58.686406 226.623335 226.623335 0 0 1 56.512835 163.704186 249.045432 249.045432 0 0 1-26.483241 116.915219z m-236.232806-33.97634a56.856031 56.856031 0 0 0 97.810677 0 186.927072 186.927072 0 0 0 14.357006-82.710082 196.879738 196.879738 0 0 0-14.185408-84.025664 49.763327 49.763327 0 0 0-48.504944-28.599613 51.479304 51.479304 0 0 0-49.477331 28.599613 189.844233 189.844233 0 0 0-14.7574 84.025664 182.293935 182.293935 0 0 0 14.7574 82.710082z m601.22107 130.071041c-9.094677 1.48718-22.879691 3.145957-42.327428 4.919133s-32.603559 2.631164-40.382654 2.631164a211.293943 211.293943 0 0 1-135.962561-38.495079 131.558221 131.558221 0 0 1-47.589757-108.67853 143.741656 143.741656 0 0 1 19.104542-76.303768 113.826461 113.826461 0 0 1 52.280093-45.759382 162.960596 162.960596 0 0 1-45.759381-36.435907 57.199226 57.199226 0 0 1 3.603551-71.956627 85.455644 85.455644 0 0 1 34.319536-26.826437 101.357029 101.357029 0 0 1-95.179513-98.954662 97.238685 97.238685 0 0 1 49.305733-87.400418 268.836364 268.836364 0 0 1 140.309703-30.429988 341.536581 341.536581 0 0 1 187.09867 43.471412 137.278144 137.278144 0 0 1 66.637099 121.605555q0 121.147962-143.856055 121.205161h-70.98424a152.207142 152.207142 0 0 0-46.445772 5.719923 20.248526 20.248526 0 0 0-17.788959 16.816572 39.295869 39.295869 0 0 0 5.319528 18.53255 183.037525 183.037525 0 0 1 37.751489-3.031559 231.48527 231.48527 0 0 1 144.828442 38.151884 128.583861 128.583861 0 0 1 48.504944 107.24855 103.759397 103.759397 0 0 1-12.069037 50.96451l58.514808 21.506909V735.899365H1510.631571z m-156.954678-453.761464a70.011853 70.011853 0 0 0 40.039459 11.439845h57.828418a174.51484 174.51484 0 0 0 56.226839-6.978305 24.881664 24.881664 0 0 0 19.676534-23.966476 41.297842 41.297842 0 0 0-32.317563-34.319536 228.167714 228.167714 0 0 0-85.798839-13.441818 105.818569 105.818569 0 0 0-52.451691 11.153849 33.232751 33.232751 0 0 0-19.676534 29.286004 32.431961 32.431961 0 0 0 16.759373 26.826437z m75.731776 379.34527q44.215002 0 44.215002-66.465501a84.31166 84.31166 0 0 0-11.439845-48.676542 37.522693 37.522693 0 0 0-32.660759-16.24458q-45.759381 0-45.759381 65.721911t45.759381 65.664712z"  horiz-adv-x="2195" />

    
    <glyph glyph-name="edit" unicode="&#58991;" d="M295.384615 187.07692299999997h433.23077a19.692308 19.692308 0 1 0 0-39.384615h-433.23077a19.692308 19.692308 0 1 0 0 39.384615zM590.769231 592.423385L618.653538 620.307692l72.979693-73.019077-27.844923-27.844923L590.769231 592.423385z m-236.307693-196.923077L382.345846 423.384615l89.284923-89.324307-27.844923-27.844923L354.461538 395.500308zM401.329231 279.15815399999997l308.342154 308.342154-55.689847 55.689846-308.381538-308.342154-8.152615-63.881846 63.881846 8.192z m-93.065846 74.043077l317.833846 317.833846a39.384615 39.384615 0 0 0 55.729231 0l55.689846-55.689846a39.384615 39.384615 0 0 0 0-55.689846l-317.833846-317.833847-127.763693-16.344615 16.344616 127.724308z"  horiz-adv-x="1024" />

    
    <glyph glyph-name="git-3" unicode="&#58979;" d="M787.696941 226.48470599999996c0-44.935529-23.431529-118.181647-78.787765-118.181647-55.416471 0-78.848 73.246118-78.848 118.181647 0 44.875294 23.431529 118.181647 78.848 118.181647 55.356235 0 78.787765-73.306353 78.787765-118.181647zM315.090824 344.66635299999996c-55.356235 0-78.787765-73.306353-78.787765-118.181647 0-44.935529 23.431529-118.181647 78.787765-118.181647s78.787765 73.246118 78.787764 118.181647c0 44.875294-23.431529 118.181647-78.787764 118.181647zM1024 334.78776500000004c0-68.367059-6.746353-140.950588-37.526588-203.715765-81.257412-164.321882-304.609882-180.284235-464.594824-180.284235-162.454588 0-399.36 14.095059-483.689412 180.284235C6.746353 193.234824 0 266.420706 0 334.78776500000004c0 89.871059 24.636235 174.742588 83.727059 243.651764a338.160941 338.160941 0 0 0-16.624941 104.688942c0 46.140235 10.420706 92.220235 31.382588 134.144 97.219765 0 159.382588-42.465882 233.231059-100.291765a823.536941 823.536941 0 0 0 190.162823 21.504c57.825882 0 116.314353-6.204235 172.333177-19.696941 73.246118 57.223529 135.348706 98.484706 231.363764 98.484706 20.961882-41.863529 31.382588-88.003765 31.382589-134.144 0-35.117176-5.541647-70.174118-16.624942-103.424C999.424 510.192941 1024 424.658824 1024 334.78776500000004z m-137.878588-108.303059c0 94.147765-57.163294 177.212235-157.515294 177.212235-40.598588 0-79.329882-7.408941-119.988706-12.950588-31.984941-4.939294-63.969882-6.746353-96.617412-6.746353s-64.632471 1.807059-96.617412 6.746353c-39.996235 5.541647-79.390118 12.950588-119.988706 12.950588-100.291765 0-157.515294-83.064471-157.515294-177.212235 0-188.295529 172.272941-217.208471 322.43953-217.208471h103.424c150.166588-0.060235 322.379294 28.912941 322.379294 217.208471z"  horiz-adv-x="1024" />

    
    <glyph glyph-name="back5" unicode="&#58925;" d="M710.6 618.9H318.7v157L0.1 540.5l318.6-235.4v157h391.9c86.6 0 156.7-70.2 156.7-156.8 0-86.6-70.2-156.8-156.7-156.8h-78.4v-156.8h78.4c173.1 0 313.5 140.4 313.5 313.5S883.8 618.9 710.6 618.9zM240.4 148.60000000000002h78.4v-156.8h-78.4zM397.1 148.60000000000002h156.8v-156.8H397.1z"  horiz-adv-x="1024" />

    
    <glyph glyph-name="blog" unicode="&#58880;" d="M212.616533 462.6432v2.2528c15.496533 3.754667 27.9552 12.151467 37.410134 25.224533 9.454933 13.073067 14.199467 28.842667 14.199466 47.3088 0 28.091733-10.8544 48.810667-32.5632 62.088534-21.7088 13.312-54.954667 19.933867-99.703466 19.933866H16.9984v-329.454933h128.238933c38.741333 0 69.358933 8.6016 91.818667 25.8048 22.459733 17.2032 33.6896 40.721067 33.6896 70.656 0 20.104533-4.573867 36.488533-13.755733 49.083733-9.147733 12.6976-23.9616 21.7088-44.373334 27.101867z m-106.5984 89.463467h25.019734c27.921067 0 41.915733-9.250133 41.915733-27.7504 0-10.376533-3.515733-18.158933-10.478933-23.415467-6.997333-5.256533-16.861867-7.8848-29.627734-7.8848h-26.8288v59.050667z m31.300267-193.3312h-31.300267v69.188266h29.525334c14.1312 0 24.917333-2.935467 32.324266-8.8064 7.441067-5.8368 11.1616-14.2336 11.1616-25.224533 0-23.4496-13.892267-35.157333-41.710933-35.157333z m185.480533-68.744534h88.132267V640.682667H322.798933v-350.651734z m332.868267 243.8144c-19.217067 10.683733-41.403733 16.008533-66.4576 16.008534-40.584533 0-72.0896-11.502933-94.549333-34.6112-22.459733-23.04-33.6896-55.3984-33.6896-97.006934 0-40.721067 11.434667-73.0112 34.372266-96.8704 22.903467-23.927467 53.76-35.874133 92.4672-35.874133 40.448 0 71.8848 11.707733 94.344534 35.054933 22.459733 23.3472 33.6896 55.944533 33.6896 97.6896 0 26.589867-5.2224 49.834667-15.6672 69.7344a109.294933 109.294933 0 0 1-44.509867 45.8752z m-37.9904-165.751466c-5.597867-11.502933-15.2576-17.237333-28.945067-17.237334-13.824 0-23.6544 5.7344-29.525333 17.237334-5.870933 11.502933-8.8064 28.194133-8.8064 50.141866 0 21.947733 2.935467 38.4 8.8064 49.4592 5.870933 11.025067 15.530667 16.554667 29.0816 16.554667 13.824 0 23.586133-5.563733 29.2864-16.6912 5.700267-11.093333 8.567467-27.5456 8.567467-49.322667 0-21.947733-2.798933-38.638933-8.465067-50.141866z m389.3248 177.2544h-89.019733a396.834133 396.834133 0 0 1-25.224534 2.935466 300.987733 300.987733 0 0 1-24.132266 1.570134c-35.1232 0-62.190933-7.645867-81.134934-22.971734-18.909867-15.325867-28.398933-36.898133-28.398933-64.648533 0-17.885867 3.7888-33.0752 11.400533-45.499733 7.611733-12.4928 17.988267-21.674667 31.197867-27.511467-13.789867-8.3968-22.903467-15.6672-27.272533-21.742933a35.4304 35.4304 0 0 1-6.519467-21.060267c0-7.202133 2.901333-14.506667 8.704-21.879467 5.768533-7.338667 12.561067-12.6976 20.3776-16.008533-37.853867-8.874667-56.763733-28.535467-56.763733-59.050667 0-22.664533 9.796267-40.072533 29.3888-52.1216 19.626667-12.0832 47.5136-18.1248 83.694933-18.1248 47.9232 0 85.162667 8.6016 111.684267 25.873067 26.5216 17.339733 39.799467 41.506133 39.799466 72.6016 0 48.196267-28.603733 72.328533-85.879466 72.328533H876.544c-11.434667 0-20.650667 1.160533-27.682133 3.4816-7.0656 2.321067-10.615467 5.700267-10.615467 10.069334 0 3.4816 1.024 7.133867 3.140267 11.0592 5.563733-1.2288 13.073067-1.877333 22.528-1.877334 38.331733 0 67.140267 7.611733 86.4256 22.801067 19.319467 15.1552 28.9792 36.522667 28.9792 64 0 11.5712-2.389333 21.7088-7.202134 30.4128l34.952534 12.868267v42.496z m-158.651733-264.123734h34.474666c14.609067 0 25.770667-1.399467 33.5872-4.164266 7.816533-2.798933 11.707733-7.5776 11.707734-14.301867 0-8.430933-6.417067-15.291733-19.217067-20.616533-12.868267-5.290667-29.969067-7.9872-51.3024-7.9872-13.073067 0-23.517867 2.218667-31.300267 6.621866-7.816533 4.471467-11.741867 10.274133-11.741866 17.476267 0 6.485333 3.2768 11.946667 9.796266 16.349867a41.642667 41.642667 0 0 0 23.995734 6.621866z m40.6528 151.005867a22.528 22.528 0 0 0-19.456-9.693867c-18.193067 0-27.272533 13.073067-27.272534 39.2192s9.079467 39.2192 27.272534 39.2192c17.544533 0 26.3168-13.2096 26.3168-39.662933 0-12.936533-2.2528-22.6304-6.8608-29.0816z"  horiz-adv-x="1024" />

    
    <glyph glyph-name="back4" unicode="&#58946;" d="M405.333333 23.46666700000003c-14.933333 0-29.866667 4.266667-42.666666 12.8L76.8 198.39999999999998c-27.733333 14.933333-44.8 44.8-44.8 76.8s17.066667 59.733333 44.8 76.8L362.666667 516.266667c29.866667 17.066667 66.133333 14.933333 91.733333-4.266667 23.466667-17.066667 34.133333-44.8 27.733333-74.666667v-324.266666c6.4-29.866667-4.266667-57.6-27.733333-74.666667-17.066667-10.666667-32-14.933333-49.066667-14.933333zM98.133333 313.6c-14.933333-8.533333-23.466667-23.466667-23.466666-38.4s8.533333-29.866667 23.466666-38.4L384 72.53333299999997c14.933333-8.533333 32-8.533333 44.8 2.133334 6.4 4.266667 14.933333 14.933333 10.666667 34.133333V445.866667c4.266667 19.2-6.4 29.866667-10.666667 34.133333-12.8 8.533333-29.866667 10.666667-44.8 2.133333L98.133333 313.6zM738.133333 200.53333299999997H437.333333v155.733334h292.266667c21.333333 0 51.2 12.8 64 27.733333 55.466667 68.266667 38.4 138.666667 0 177.066667-23.466667 23.466667-53.333333 36.266667-85.333333 36.266666h-194.133334c-42.666667 0-76.8 34.133333-76.8 76.8s36.266667 78.933333 78.933334 78.933334h198.4c74.666667 0 142.933333-27.733333 196.266666-81.066667 96-96 108.8-236.8 32-362.666667-42.666667-66.133333-119.466667-108.8-204.8-108.8z m-258.133333 42.666667h258.133333c68.266667 0 132.266667 34.133333 166.4 89.6 66.133333 106.666667 55.466667 228.266667-25.6 309.333333-44.8 44.8-102.4 68.266667-166.4 68.266667h-198.4c-19.2 0-36.266667-17.066667-36.266666-36.266667 0-19.2 14.933333-34.133333 34.133333-34.133333h194.133333c42.666667 0 85.333333-17.066667 115.2-49.066667 51.2-51.2 74.666667-147.2 2.133334-234.666666-19.2-25.6-61.866667-44.8-96-44.8H480v-68.266667z"  horiz-adv-x="1024" />

    
    <glyph glyph-name="pinglun2" unicode="&#58896;" d="M512.6-96c-18 0-36.2 1-54.5 3C254.8-70.9 61.4 119.1 35.9 321.8c-18.8 149.5 31 295.9 136.7 401.6C278.2 829.1 424.7 879 574.2 860.1 776.6 834.6 966.5 641.5 989 438.5c12.1-109.5-11.8-215.6-69.1-307.7 12.1-44.1 46-161 46-161 3.2-11.2 0.1-23.3-8.1-31.5s-20.3-11.4-31.5-8.1c0 0-117.2 33.9-160.5 46.3-76.7-47.9-163.2-72.5-253.2-72.5z m-0.3 896c-110.5 0-215.6-43-294.5-121.8C126.2 586.6 83 459.6 99.4 329.8 121.1 157.3 292-10.6 465.1-29.4c97.8-10.7 192.3 11.7 273.5 64.5 10.6 6.9 23.9 8.8 36.4 5.3 19.3-5.5 71.9-20.7 113.3-32.7-12 41.7-27.2 94.9-32.6 115-3.2 12.1-1.1 25 5.8 35.5 52.5 81 74.6 175.5 63.8 273.2-19 172.9-186.9 343.5-359.1 365.2-18 2.3-36.1 3.4-53.9 3.4z m261.2-818.5z m141.7 142.1c0-0.1-0.1-0.1-0.1-0.2 0.1 0 0.1 0.1 0.1 0.2zM336 352c-26.5 0-48 21.5-48 48s21.5 48 48 48 48-21.5 48-48-21.6-48-48-48zM528 352c-26.5 0-48 21.5-48 48s21.5 48 48 48 48-21.5 48-48-21.6-48-48-48zM720 352c-26.5 0-48 21.5-48 48s21.5 48 48 48 48-21.5 48-48-21.6-48-48-48z"  horiz-adv-x="1024" />

    
    <glyph glyph-name="git-2" unicode="&#58917;" d="M516.384236-128c-69.075889 0-136.149578 13.514848-199.344006 40.294269-60.941953 25.778321-115.752169 62.693878-162.803862 109.74557-47.051693 47.051693-83.967249 101.736771-109.74557 162.803861C17.836515 247.78785300000004 4.321667 314.861542 4.321667 383.93743099999995c0 69.075889 13.514848 136.149578 40.294269 199.344006 25.778321 60.941953 62.693878 115.752169 109.74557 162.803862C201.413198 793.136991 256.098277 830.052548 317.165367 855.830869 380.10952 882.485152 447.183209 896 516.384236 896 585.460125 896 652.533814 882.485152 715.603104 855.705731c60.941953-25.778321 115.752169-62.693878 162.803862-109.74557 47.051693-47.051693 83.967249-101.736771 109.74557-162.803861 26.654283-63.194427 40.294269-130.142979 40.294269-199.344006 0-69.075889-13.514848-136.149578-40.294269-199.344006-25.778321-60.941953-62.693878-115.752169-109.74557-162.678724-47.051693-47.051693-101.736771-83.967249-162.678724-109.74557-63.194427-26.529146-130.268117-40.043994-199.344006-40.043994m0 988.961506c-64.445802 0-126.889405-12.638885-185.704021-37.541244-56.812416-24.026396-107.74337-58.439203-151.541488-102.237322S100.927802 626.32873 76.901406 569.6414520000001c-24.902359-58.814616-37.416107-121.258218-37.416107-185.704021S52.124185 257.04802600000005 76.901406 198.23341100000005C100.927802 141.42099499999995 135.340609 90.49004000000002 179.138727 46.56678499999998c43.798118-43.798118 94.85421-78.210925 151.541488-102.237321 58.814616-24.902359 121.258218-37.416107 185.704021-37.416107s126.889405 12.638885 185.70402 37.416107c56.812416 24.026396 107.74337 58.439203 151.541489 102.237321s78.210925 94.85421 102.237321 151.666626c24.902359 58.814616 37.416107 121.258218 37.416107 185.70402s-12.638885 126.889405-37.416107 185.704021c-24.026396 56.812416-58.439203 107.74337-102.237321 151.541488S758.775535 799.393865 702.088256 823.420262c-58.939753 24.902359-121.383356 37.541244-185.70402 37.541244m0 0zM771.41442 508.574361c29.031895 53.809116-4.129537 124.261518-4.129536 124.261518-74.581938 0-128.391055-49.67958-128.391055-49.679579-29.031895 16.518147-124.261518 16.518147-124.261518 16.518147s-95.229622 0-124.261518-16.518147c0 0-53.809116 49.67958-128.391054 49.679579 0 0-33.161432-70.452401-4.129537-124.261518 0 0-66.322864-62.06819-41.420506-194.713919C239.830405 189.34865000000002 348.950287 156.43749200000002 419.402689 156.43749200000002c0 0-29.031895-24.902359-24.902359-66.322864 0 0-41.420506-24.902359-82.841012-8.259074-41.420506 16.518147-62.06819 57.938653-62.06819 57.938654s-41.420506 53.809116-82.841012 33.161432c0 0-12.388611-12.388611 33.161433-33.161432 0 0 33.161432-49.67958 45.550042-78.711476 12.388611-29.031895 78.711475-53.809116 144.909202-37.290969v-95.104484s0-8.259074-16.518147-12.388611c-16.518147-4.129537-16.518147-12.388611-8.259074-12.388611H663.796187c8.259074 0 8.259074 8.259074-8.259073 12.388611s-16.518147 12.388611-16.518148 12.388611v95.229622s0.375412 49.67958 0 66.322864c-0.875962 41.670781-29.031895 66.322864-29.031895 66.322865 70.452401 0 179.572284 32.78602 202.972993 157.42295C837.612147 446.381034 771.41442 508.574361 771.41442 508.574361z"  horiz-adv-x="1058" />

    
    <glyph glyph-name="back3" unicode="&#58887;" d="M952 60.48000000000002h-880c-24.85333333 0-45.01333333 20.16-45.01333333 45.01333333s20.16 45.01333333 45.01333333 45.01333334h880c24.85333333 0 45.01333333-20.16 45.01333333-45.01333334s-20.16-45.01333333-45.01333333-45.01333333z m-880 76.58666667C54.61333333 137.06666667000002 40.53333333 122.88 40.53333333 105.60000000000002c0-17.38666667 14.18666667-31.46666667 31.46666667-31.46666667h880c17.38666667 0 31.46666667 14.18666667 31.46666667 31.46666667 0 17.38666667-14.18666667 31.46666667-31.46666667 31.46666667h-880zM606.61333333 201.81333332999998c-17.17333333 0-33.28 6.61333333-45.33333333 18.66666667L378.77333333 403.09333333l-0.10666666 0.10666667c-2.24 1.6-4.48 3.30666667-6.61333334 5.54666667-12.16 12.16-18.77333333 28.48-18.66666666 45.97333333-0.21333333 17.38666667 6.50666667 33.70666667 18.66666666 45.97333333 2.24 2.24 4.48 3.84 6.72 5.54666667l0.10666667 0.10666667 182.61333333 182.61333333c12.05333333 12.05333333 28.16 18.66666667 45.33333334 18.66666667s33.28-6.61333333 45.33333333-18.66666667c24.96-24.96 24.96-65.70666667 0-90.66666667L508.58666667 454.61333333l143.46666666-143.46666666c24.96-24.96 24.96-65.70666667 0-90.66666667-12.16-12.05333333-28.26666667-18.66666667-45.44-18.66666667z m0 492.16c-13.54666667 0-26.24-5.22666667-35.84-14.72L387.52 495.89333333l-0.96-0.64c-1.92-1.38666667-3.62666667-2.77333333-5.12-4.26666666-9.6-9.6-14.82666667-22.50666667-14.72-36.37333334v-0.21333333c-0.10666667-13.76 5.12-26.66666667 14.72-36.37333333 1.49333333-1.49333333 3.30666667-2.77333333 5.12-4.16l0.96-0.64 0.32-0.32 182.93333333-182.93333334c9.49333333-9.49333333 22.18666667-14.72 35.84-14.72 13.54666667 0 26.24 5.22666667 35.84 14.72s14.72 22.18666667 14.72 35.84-5.22666667 26.24-14.72 35.84L489.49333333 454.61333333l152.96 152.96c19.73333333 19.73333333 19.73333333 51.84 0 71.57333334-9.49333333 9.6-22.18666667 14.82666667-35.84 14.82666666z"  horiz-adv-x="1024" />

    
    <glyph glyph-name="paging-left" unicode="&#58962;" d="M258.64 384l271.53-271.529c16.662-16.662 16.662-43.677 0-60.34-16.662-16.662-43.678-16.662-60.34 0l-301.699 301.7c-16.662 16.661-16.662 43.677 0 60.339l301.7 301.699c16.661 16.662 43.677 16.662 60.339 0 16.662-16.663 16.662-43.678 0-60.34L258.64 384zM558.64 384l271.53-271.529c16.662-16.662 16.662-43.677 0-60.34-16.662-16.662-43.678-16.662-60.34 0l-301.699 301.7c-16.662 16.661-16.662 43.677 0 60.339l301.7 301.699c16.661 16.662 43.677 16.662 60.339 0 16.662-16.663 16.662-43.678 0-60.34L558.64 384z"  horiz-adv-x="1024" />

    
    <glyph glyph-name="paging-right" unicode="&#58963;" d="M774.36 384L502.83 112.471c-16.662-16.662-16.662-43.677 0-60.34 16.662-16.662 43.678-16.662 60.34 0l301.699 301.7c16.662 16.661 16.662 43.677 0 60.339l-301.7 301.699c-16.661 16.662-43.677 16.662-60.339 0-16.662-16.663-16.662-43.678 0-60.34L774.36 384zM474.36 384L202.83 112.471c-16.662-16.662-16.662-43.677 0-60.34 16.662-16.662 43.678-16.662 60.34 0l301.699 301.7c16.662 16.661 16.662 43.677 0 60.339l-301.7 301.699c-16.661 16.662-43.677 16.662-60.339 0-16.662-16.663-16.662-43.678 0-60.34L474.36 384z"  horiz-adv-x="1024" />

    
    <glyph glyph-name="back2" unicode="&#58987;" d="M925 49H499a40 40 0 0 0 0 80h426a20 20 0 0 1 20 20V535a20 20 0 0 1-20 20H101a40 40 0 0 0 0 80h824a100 100 0 0 0 100-100v-386a100 100 0 0 0-100-100zM243 375a40 40 0 0 0-27 10L17 564a40 40 0 0 0 1 60l199 171a40 40 0 0 0 52-61L105 593l165-148a40 40 0 0 0-27-70z"  horiz-adv-x="1025" />

    
    <glyph glyph-name="back1" unicode="&#58926;" d="M900.7 324.9h-485c-32.4 0-58.7 26.3-58.7 58.7s26.3 58.7 58.7 58.7h484.9c32.4 0 58.7-26.3 58.7-58.7s-26.2-58.7-58.6-58.7zM334 57.60000000000002c-17.7 0-35.3 8-46.8 23.2l-211 278.4c-16.8 22.2-15.7 53.1 2.6 74.1l224 256c21.4 24.4 58.4 26.9 82.8 5.5 24.4-21.3 26.9-58.4 5.5-82.8L198.6 392l182.2-240.3c19.6-25.8 14.5-62.6-11.3-82.2-10.7-8-23.2-11.9-35.5-11.9z"  horiz-adv-x="1024" />

    
    <glyph glyph-name="go" unicode="&#58927;" d="M971.2-128h-12.8V341.6h-242.8v-154.4h-220.4V32H269.2v-159.2H52.8v13.2H256v158.8h226.4V200h220v154.8h268.8zM166.4 15.200000000000045c-5.6 0-11.6 2-16.8 5.2-10.8 7.2-15.6 17.6-5.6 48 6 18.4 108.8 405.6 120.4 450L275.6 560 181.6 514.4c-15.6-7.6-26.4-21.6-30-38.4l-8.4-38.4V436.4l-1.6-8c-2-8.8-10-15.2-18.8-15.2-1.2 0-2.4 0-4 0.4-5.2 1.2-9.6 4-12.4 8.4-2.8 4.4-4 9.6-2.8 14.8L118 504c2.4 11.2 9.6 20.8 20 26.4l92.4 49.2c12 6.4 26 10 39.6 10 6 0 12-0.8 18-2l23.2-5.2L374 568l0.8-0.4c4.8-1.2 8.8-3.6 12.4-7.2 2.4-2.8 4-5.6 4.8-8.8l0.4-0.8 34.8-112.4c5.6-18.4 20.8-32 39.6-35.6l34-6.4c0.8 0 2-0.4 2.8-0.8 0.4 0 0.8-0.4 1.2-0.4 0.8-0.4 1.2-0.8 2-1.2l0.8-0.8c0.8-0.4 1.2-0.8 1.2-1.2 3.2-2.8 4.8-7.6 4.8-12v-2l-0.4-1.6-0.4-1.2c-2-6.4-8.4-10.8-15.2-10.8-0.8 0-1.6 0-2.8 0.4l-2.4 0.4-41.6 6.8c-20 3.2-36.8 17.2-43.2 36.4l-37.6 108.8-15.6-69.2-29.6-135.2 40.4-13.2c33.6-10.8 53.6-46 46-79.6-0.4-0.8-0.4-2-0.8-2.8l-29.2-109.6c-3.2-11.2-13.2-19.2-25.2-19.2h-2.8s-1.2 0-1.6 0.4h-1.6c-0.8 0.4-1.6 0.4-2.4 0.8-12.8 4.4-20.4 18.4-16.4 31.6l19.2 68.4c4.4 16.4 1.2 33.6-9.2 47.2-10.4 13.6-26.8 21.6-44 21.6h-3.6l-37.6-2-69.6-226c-3.2-8.8-10.4-14.4-19.2-15.2h-0.8zM351.6 590.8c-42.4 0-76.8 34.4-76.8 76.8S309.2 744 351.6 744s76.8-34.4 76.8-76.8-34.4-76.4-76.8-76.4z m0 140c-35.2 0-63.6-28.4-63.6-63.6s28.4-63.6 63.6-63.6 63.6 28.4 63.6 63.6-28.4 63.6-63.6 63.6zM351.6 617.2c-27.6 0-50.4 22.4-50.4 50.4 0 27.6 22.4 50.4 50.4 50.4 27.6 0 50.4-22.4 50.4-50.4s-22.8-50.4-50.4-50.4zM166.4-11.200000000000045c-10.8 0-21.6 3.2-31.2 10-34 22.8-21.2 61.6-16 78 5.2 16.4 96.8 361.2 116.4 434.8l-42.8-20.8c-8-4-14-11.6-16-20.4l-10.4-47.6c-5.2-23.6-28.8-40-53.6-34.8-12 2.4-22.4 9.2-29.2 19.6-6.8 10.4-9.2 22.4-6.4 34.8L92 510c4 18.8 16.4 34.8 33.6 44l92.4 49.2c22.8 12 50.4 16 75.6 10.4l23.6-5.2 64.4-15.2c10-2.4 18.8-7.6 25.6-15.6 4.8-5.2 8.4-11.6 10.4-18v-0.4l34.8-113.2c2.8-9.2 10.4-15.6 19.6-17.6l34-6.4c2.4-0.4 4.8-1.2 7.2-2 1.2-0.4 2.4-0.8 3.6-1.6 1.6-0.8 3.2-1.6 4.8-2.8 1.2-0.8 2-1.6 3.2-2 0.8-0.8 1.6-1.6 2.8-2.4 8.8-8.4 13.6-20.4 13.2-32.4v-1.2c0-0.8 0-1.6-0.4-2.4 0-0.4 0-1.2-0.4-1.6 0-0.4 0-1.2-0.4-1.6 0-0.4-0.4-1.2-0.4-1.6 0-0.4-0.4-1.2-0.4-1.6-0.4-0.8-0.4-1.2-0.4-2-5.6-17.2-22-28.8-40-28.8-2 0-4.4 0-6.8 0.4h-1.2l-43.2 6.8c-29.6 4.8-54 25.2-64 53.6l-7.6 21.6-19.6-90.4 18-6c46-15.2 74-63.6 63.6-110-0.4-1.2-0.4-2.4-0.8-3.6l-29.2-109.6c-6-22.8-26.8-38.8-50.4-38.8h-3.2c-1.2 0-2.4 0-3.6 0.4-0.8 0-1.6 0.4-2.8 0.4-0.4 0-1.2 0-1.6 0.4h-0.4c-0.4 0-0.8 0-1.2 0.4-1.2 0.4-2.8 0.8-4 1.2-26.4 8.8-41.2 36.8-33.6 63.6l0.4 1.2 18.8 66.4 6.4-1.2-6.4 1.6c2.4 8.4 0.4 17.2-4.8 24-6 7.6-15.2 12-24.8 11.2l-19.6-1.2-64.4-208.8c-6.4-19.2-23.2-32-42.4-33.2-1.2 0.8-2.4 0.4-3.6 0.4zM255.6 535.6l-3.6-13.6c-4.8-17.6-114.4-430.8-120.4-449.2-8-24-12-48 10.8-63.2 8.4-5.6 17.6-8 26.8-7.6 14 0.8 26.4 10.4 30.8 24.4l66.8 217.2 28.4 1.6h2.8c13.2 0 25.2-6 33.2-16.4 7.6-10 10.4-23.2 7.2-35.2v-0.4l-19.2-68c-5.6-20 5.2-41.2 25.2-47.6 1.2-0.4 2-0.8 3.2-0.8l1.2-0.4h1.2c0.8 0 1.6-0.4 2-0.4 1.2 0 2-0.4 2.8-0.4h2.4c17.6 0 33.2 12 38 29.2l29.2 109.6c0.4 1.2 0.4 2 0.8 3.2 9.2 40-15.2 82-54.8 94.8l-29.2 9.6 27.2 124.8 5.2 22L396 404c8.4-24 28.8-41.2 53.6-45.2l44.4-7.2c1.6-0.4 3.2-0.4 4.8-0.4 12.4 0 23.6 8 27.6 20 0 0.4 0.4 0.8 0.4 1.2 0 0.8 0.4 1.2 0.4 1.6l0.4 1.2c0 0.4 0 0.8 0.4 1.2v1.2 2.8c0.4 8.4-3.2 16.4-9.2 22.4-0.4 0.4-1.2 1.2-2 1.6-0.8 0.4-1.2 1.2-2 1.6-1.2 0.8-2.4 1.2-3.2 2-0.8 0.4-1.6 0.8-2.4 0.8-1.6 0.8-3.2 1.2-5.2 1.6l-34 6.4c-14 2.8-25.2 12.8-29.6 26.4l-34.8 113.2c-1.6 5.2-4 9.6-7.6 13.6-5.2 5.6-11.6 9.6-19.2 11.6l-63.6 14.8-23.2 5.2c-22.4 4.8-46.4 1.6-66.8-9.2L131.6 542.4c-13.6-7.2-23.6-20-26.8-35.2l-14.8-67.6c-2-8.4 0-17.2 4.8-24.8 4.8-7.2 12.4-12.4 20.8-14 18-3.6 34.4 8 38.4 25.2l10.4 47.6c2.8 12.8 11.2 23.6 22.8 29.2l68.4 32.8zM271.6 230.79999999999995H240c-19.2 0-36.8 8.8-48.4 24-11.6 15.2-15.6 34.4-10.4 52.8l15.2 57.6 12.4-3.2-14.8-58c-4-14.4-0.8-29.6 8.4-41.6 9.2-12 22.8-18.8 38-18.8H272v-12.8zM395.48 574.6800000000001l12.504-2.728-28.272-129.76-12.508 2.728zM741.2 316v-152.8h-222.4v-154H295.6V-128H930V316zM821.2 348h-12.8V719.2h-228l76.4 88.4L580 896h241.2v-548z m-212.8 384.4H808V883.2h-199.6L673.6 808l-65.2-75.6zM642 747.6h151.2V868h-151.2l51.2-60.4-51.2-60zM124-40.799999999999955c-75.2 34.4-40 120.4-39.6 121.2l12-5.2s-8-19.6-7.6-42c0.4-29.2 14-50 40.8-62.4l-5.6-11.6z"  horiz-adv-x="1024" />

    
    <glyph glyph-name="git-1" unicode="&#58954;" d="M0 375.11400000000003c0 69.368 13.51 135.697 40.498 199.02 26.987 63.323 63.322 117.826 109.006 163.51 45.65 45.65 100.154 81.985 163.51 109.006A502.289 502.289 0 0 0 512 887.08c69.335 0 135.663-13.477 198.986-40.497 63.356-26.988 117.86-63.323 163.51-109.007 45.684-45.65 82.02-100.154 109.006-163.51A502.289 502.289 0 0 0 1024 375.148c0-111.318-32.504-211.472-97.511-300.494-64.975-88.989-148.48-150.825-250.484-185.476-5.351 0-9.348 0.99-11.99 2.973-2.676 1.982-4.196 3.997-4.526 6.012a59.458 59.458 0 0 0-0.495 8.984 7.663 7.663 0 0 0-0.991 3.006v128.99c0 40.63-14.336 75.314-43.008 103.986 76.667 13.345 134.011 41.819 171.999 85.487 37.987 43.669 57.013 96.52 57.013 158.522 0 58.005-18.663 108.346-56.022 150.99 13.345 42.678 11 87.668-6.97 135.003-18.697 1.322-39.011-1.85-61.01-9.513-22-7.663-38.318-14.831-49.02-21.47-10.637-6.673-20.316-13.016-28.97-19.027-38.68 10.669-81.854 16.02-129.486 16.02-47.7 0-90.509-5.351-128.529-16.02-7.333 5.35-15.855 11.164-25.5 17.507-9.68 6.342-26.493 14.005-50.507 22.99-23.982 9.018-45.65 12.85-65.008 11.495-18.663-47.996-20.645-93.646-5.979-136.984-36.665-42.678-54.998-92.986-54.998-150.99 0-62.002 18.663-114.689 55.99-157.994 37.326-43.339 94.67-72.01 171.998-86.016a142.303 142.303 0 0 1-39.969-70.029c-56.683-13.972-96.355-3.963-119.015 30.06-42.017 61.308-79.674 83.307-113.003 65.965-4.69-4.657-3.997-9.48 1.982-14.501 6.012-4.988 14.996-11.66 27.02-19.985 11.99-8.357 20.976-17.507 26.987-27.515 0.661-1.322 2.51-6.177 5.517-14.502a831.917 831.917 0 0 1 8.985-23.981c2.973-7.663 8.654-16.186 17.011-25.5 8.324-9.349 18.003-17.178 29.003-23.52 11-6.309 26.161-11 45.485-14.006 19.324-2.972 41.323-3.138 65.998-0.495v-100.484c0-0.991-0.165-2.643-0.495-5.021-0.33-2.312-0.991-3.964-1.982-4.955-0.991-1.024-2.345-2.015-4.03-3.039a12.52 12.52 0 0 0-6.474-1.486c-2.676 0-6.012 0.33-10.009 0.99-101.343 35.345-183.825 97.182-247.51 185.51C31.842 164.96299999999997 0 264.423 0 375.08000000000004z"  horiz-adv-x="1024" />

    
    <glyph glyph-name="loading-copy" unicode="&#59316;" d="M829.48771668 338.57839965000005h-90.68870543c-25.02822876 0-45.42160035 20.39337158-45.42160036 45.42160035s20.39337158 45.42160035 45.42160036 45.42160035h90.68870541c25.02822876 0 45.42160035-20.39337158 45.42160035-45.42160035s-20.39337158-45.42160035-45.42160035-45.42160035z m-124.98664853 173.8071442c-17.76695252-17.76695252-46.503067-17.76695252-64.1155243 0-17.76695252 17.61245727-17.76695252 46.503067 0 64.11552424l64.1155243 64.11552429c17.61245727 17.76695252 46.34857177 17.76695252 64.11552427 0 17.61245727-17.76695252 17.76695252-46.503067 0-64.11552429l-64.11552427-64.11552424zM512 21.090682990000005c-25.02822876 0-45.42160035 20.39337158-45.42160035 45.42160033v90.68870543c0 25.02822876 20.23887634 45.42160035 45.42160035 45.42160036 25.02822876 0 45.42160035-20.39337158 45.42160035-45.42160036v-90.68870543c0-25.02822876-20.39337158-45.42160035-45.42160035-45.42160033z m0 544.2867279c-25.02822876 0-45.42160035 20.39337158-45.42160035 45.42160036V701.48771668c0 25.02822876 20.23887634 45.42160035 45.42160035 45.42160033 25.02822876 0 45.42160035-20.39337158 45.42160035-45.42160035v-90.68870541c0-25.02822876-20.39337158-45.42160035-45.42160035-45.42160036zM319.49893191 127.38340761999996c-17.61245727-17.76695252-46.503067-17.76695252-64.11552433 0-17.76695252 17.61245727-17.76695252 46.503067 0 64.11552429l64.11552433 64.11552429c17.76695252 17.76695252 46.503067 17.76695252 64.11552424 0 17.61245727-17.76695252 17.76695252-46.34857177 0-64.11552429l-64.11552424-64.11552429z m0 385.00213623l-64.11552433 64.11552424c-17.76695252 17.76695252-17.76695252 46.503067 0 64.11552429 17.76695252 17.61245727 46.503067 17.76695252 64.11552433 0l64.11552424-64.11552429c17.76695252-17.76695252 17.76695252-46.503067 0-64.11552424-17.61245727-17.76695252-46.34857177-17.76695252-64.11552424 0z m11.1236572-128.38554385c0-25.02822876-20.23887634-45.42160035-45.42160036-45.42160035H194.51228332c-25.02822876 0-45.42160035 20.39337158-45.42160033 45.42160035s20.23887634 45.42160035 45.42160035 45.4216003h90.68870541c25.02822876 0 45.42160035-20.39337158 45.42160036-45.4216003z m373.87847904-128.38554385l64.11552423-64.11552424c17.76695252-17.61245727 17.76695252-46.34857177 0-64.11552429-17.76695252-17.61245727-46.503067-17.76695252-64.11552429 0l-64.11552424 64.11552429c-17.76695252 17.76695252-17.76695252 46.503067 0 64.11552424 17.61245727 17.76695252 46.34857177 17.76695252 64.11552424 0z"  horiz-adv-x="1024" />

    


  </font>
</defs>
</svg>
